<?xml version="1.0" encoding="UTF-8"?>
<svg version="1.1" xmlns="http://www.w3.org/2000/svg" width="500" height="500">
<path d="M0 0 C1.53156498 1.24746715 3.04982389 2.51121522 4.56762695 3.77539062 C5.45192383 4.4946875 6.3362207 5.21398437 7.24731445 5.95507812 C23.75173509 19.99154801 31.07881508 37.68520138 36.94262695 57.96289062 C37.38298108 59.45083261 37.82438408 60.9384646 38.2668457 62.42578125 C39.38601337 66.20369506 40.49254022 69.9846405 41.56762695 73.77539062 C41.77194336 74.45794922 41.97625977 75.14050781 42.18676758 75.84375 C42.71103335 78.50271844 42.69754745 81.05448574 42.70043945 83.76367188 C42.70277588 84.93728271 42.7051123 86.11089355 42.70751953 87.32006836 C42.68320251 93.4722742 42.64495644 99.62360213 42.56762695 105.77539062 C42.56037598 106.58137695 42.553125 107.38736328 42.5456543 108.21777344 C42.10221188 139.04829539 27.9884979 168.57965286 6.31762695 190.08789062 C5.34696289 191.02568359 5.34696289 191.02568359 4.35668945 191.98242188 C2.67189091 193.67089901 1.17828908 195.4117969 -0.30737305 197.27539062 C-1.00862305 198.10039062 -1.70987305 198.92539062 -2.43237305 199.77539062 C-3.09237305 199.77539062 -3.75237305 199.77539062 -4.43237305 199.77539062 C-4.43237305 200.43539062 -4.43237305 201.09539062 -4.43237305 201.77539062 C-10.20267226 208.22557404 -18.01877884 212.5132512 -25.43237305 216.77539062 C-26.23288086 217.23945313 -27.03338867 217.70351563 -27.8581543 218.18164062 C-54.51006538 232.54329219 -89.63708158 235.40907694 -118.5456543 227.17333984 C-150.18951474 217.65880072 -175.84137095 195.73784243 -191.43237305 166.77539062 C-207.48437624 135.80232083 -211.3546533 98.70719308 -200.97143555 65.25585938 C-191.42095723 36.53521805 -172.3695049 10.69563984 -146.43237305 -5.22460938 C-145.34698242 -5.90910156 -144.2615918 -6.59359375 -143.14331055 -7.29882812 C-99.5228504 -33.62151959 -40.37116617 -32.07788818 0 0 Z " fill="#FEFDFA" transform="translate(326.432373046875,145.224609375)"/>
<path d="M0 0 C1.53156498 1.24746715 3.04982389 2.51121522 4.56762695 3.77539062 C5.45192383 4.4946875 6.3362207 5.21398437 7.24731445 5.95507812 C23.75173509 19.99154801 31.07881508 37.68520138 36.94262695 57.96289062 C37.38298108 59.45083261 37.82438408 60.9384646 38.2668457 62.42578125 C42.71505814 77.44137154 42.71505814 77.44137154 42.75512695 83.27539062 C42.76930664 84.21382813 42.78348633 85.15226562 42.7980957 86.11914062 C42.56242598 88.83533399 41.9524735 90.45454108 40.56762695 92.77539062 C40.42067383 91.75703125 40.2737207 90.73867187 40.12231445 89.68945312 C36.49117586 66.13490451 27.70032709 42.49561512 10.2746582 25.54492188 C8.56762695 23.77539062 8.56762695 23.77539062 8.56762695 21.77539062 C7.9952832 21.52789062 7.42293945 21.28039062 6.83325195 21.02539062 C4.21728158 19.58209663 2.45243708 17.86541453 0.31762695 15.77539062 C-9.13438026 7.11919495 -20.54931997 0.5030569 -32.43237305 -4.22460938 C-33.24061523 -4.56878906 -34.04885742 -4.91296875 -34.8815918 -5.26757812 C-48.65948169 -10.77451421 -62.4737981 -12.59021225 -77.24487305 -12.66210938 C-79.03127197 -12.67709473 -79.03127197 -12.67709473 -80.85375977 -12.69238281 C-89.36173336 -12.61013476 -97.19246521 -11.29514365 -105.43237305 -9.22460938 C-106.18929443 -9.04196533 -106.94621582 -8.85932129 -107.72607422 -8.67114258 C-125.44075344 -4.19310772 -140.64535499 5.01215503 -154.43237305 16.77539062 C-155.45717773 17.5978125 -156.48198242 18.42023438 -157.5378418 19.26757812 C-160.35411049 21.7075842 -162.61022126 24.18099409 -164.93237305 27.08789062 C-165.64393555 27.97089844 -166.35549805 28.85390625 -167.08862305 29.76367188 C-167.86206055 30.75753906 -168.63549805 31.75140625 -169.43237305 32.77539062 C-169.90658691 33.37295166 -170.38080078 33.9705127 -170.86938477 34.58618164 C-174.67777015 39.49095736 -177.71453395 44.57396497 -180.55737305 50.08789062 C-180.99259277 50.92964844 -181.4278125 51.77140625 -181.8762207 52.63867188 C-184.89742568 58.56448596 -187.66538644 64.34218696 -189.43237305 70.77539062 C-189.60994141 71.38092773 -189.78750977 71.98646484 -189.97045898 72.61035156 C-196.2079898 94.49956172 -195.4424558 118.20555349 -188.43237305 139.77539062 C-188.19180176 140.52127441 -187.95123047 141.2671582 -187.70336914 142.03564453 C-180.30814786 164.35026596 -167.05725403 183.46254624 -148.43237305 197.77539062 C-147.27801758 198.67064453 -147.27801758 198.67064453 -146.1003418 199.58398438 C-135.61191038 207.32076598 -123.04048582 214.3266066 -110.43237305 217.77539062 C-109.78623047 217.95440918 -109.14008789 218.13342773 -108.47436523 218.31787109 C-85.97087209 224.30499264 -62.63698695 223.53772681 -40.43237305 216.77539062 C-39.23999023 216.41445313 -38.04760742 216.05351562 -36.8190918 215.68164062 C-23.91122177 211.1807644 -10.68912743 203.83252461 -0.43237305 194.77539062 C0.22762695 195.10539063 0.88762695 195.43539062 1.56762695 195.77539062 C0.27797519 197.15101917 -1.05926597 198.48305455 -2.43237305 199.77539062 C-3.09237305 199.77539062 -3.75237305 199.77539062 -4.43237305 199.77539062 C-4.43237305 200.43539062 -4.43237305 201.09539062 -4.43237305 201.77539062 C-10.20267226 208.22557404 -18.01877884 212.5132512 -25.43237305 216.77539062 C-26.23288086 217.23945313 -27.03338867 217.70351563 -27.8581543 218.18164062 C-54.51006538 232.54329219 -89.63708158 235.40907694 -118.5456543 227.17333984 C-150.18951474 217.65880072 -175.84137095 195.73784243 -191.43237305 166.77539062 C-207.48437624 135.80232083 -211.3546533 98.70719308 -200.97143555 65.25585938 C-191.42095723 36.53521805 -172.3695049 10.69563984 -146.43237305 -5.22460938 C-145.34698242 -5.90910156 -144.2615918 -6.59359375 -143.14331055 -7.29882812 C-99.5228504 -33.62151959 -40.37116617 -32.07788818 0 0 Z " fill="#FDFCF8" transform="translate(326.432373046875,145.224609375)"/>
<path d="M0 0 C1.3965834 -0.00412399 1.3965834 -0.00412399 2.82138062 -0.0083313 C3.83558075 -0.00114075 4.84978088 0.0060498 5.89471436 0.01345825 C6.96819122 0.0131662 8.04166809 0.01287415 9.14767456 0.01257324 C12.69722567 0.013967 16.24656708 0.02953061 19.79608154 0.04519653 C22.25659063 0.04892649 24.7171012 0.05177355 27.1776123 0.05377197 C33.65492857 0.06140974 40.1321552 0.08105957 46.60943604 0.10317993 C53.21851387 0.1236352 59.82760618 0.13277301 66.43670654 0.14285278 C79.40549479 0.16430523 92.3742209 0.19805877 105.34295654 0.24050903 C104.27845923 9.54749274 101.46049863 14.82344863 94.28436279 21.01394653 C89.35825841 24.12621369 84.52599178 24.48492009 78.81219482 24.46414185 C78.08289764 24.46454971 77.35360046 24.46495758 76.60220337 24.46537781 C75.02753356 24.46557448 73.45285869 24.46156837 71.87820816 24.4537735 C69.38019696 24.44349799 66.88268091 24.44896469 64.38467407 24.459198 C57.28555485 24.4870868 50.18671752 24.49969142 43.08758545 24.4704895 C38.7361233 24.45371562 34.38554979 24.4661419 30.03417587 24.49694061 C28.38288619 24.50302297 26.73151727 24.49823358 25.08029556 24.48206329 C13.50871629 24.12807037 13.50871629 24.12807037 3.70477295 29.59957886 C1.85486557 31.82863765 0.53214217 33.91190673 -0.59844971 36.58425903 C-1.0327832 37.57538696 -1.4671167 38.56651489 -1.91461182 39.587677 C-2.56055298 41.14832886 -2.56055298 41.14832886 -3.21954346 42.74050903 C-4.16831888 44.92095684 -5.11882848 47.10065092 -6.07110596 49.27957153 C-6.51873291 50.32016724 -6.96635986 51.36076294 -7.42755127 52.43289185 C-8.87185397 55.73104138 -10.44273399 58.916639 -12.09454346 62.11550903 C-15.31982125 68.45881072 -18.30758663 74.90114366 -21.28204346 81.36550903 C-22.03977051 83.00870117 -22.03977051 83.00870117 -22.81280518 84.68508911 C-25.33270744 90.15796504 -27.83928853 95.63615818 -30.31842041 101.12759399 C-31.49344579 103.72591882 -32.67662806 106.32048307 -33.86108398 108.91452026 C-34.43140853 110.16915317 -34.99788794 111.4255414 -35.5604248 112.6836853 C-36.3448466 114.43737701 -37.14320428 116.18481526 -37.94219971 117.93191528 C-38.39474121 118.93424194 -38.84728271 119.9365686 -39.3135376 120.9692688 C-40.65704346 123.24050903 -40.65704346 123.24050903 -43.65704346 124.24050903 C-50.23817531 120.70619748 -53.36935641 116.31035066 -55.65704346 109.24050903 C-57.34590001 97.64183307 -53.76057961 89.32172192 -48.78204346 79.24050903 C-48.08859528 77.78622366 -47.39786736 76.33063826 -46.70977783 74.87380981 C-45.342674 71.98645664 -43.96316597 69.10564034 -42.57208252 66.22976685 C-40.00257889 60.90243729 -37.5780454 55.51156104 -35.15704346 50.11550903 C-31.94075872 43.02577224 -28.69872014 35.94915695 -25.36798096 28.91238403 C-24.09570378 26.21343431 -22.88729461 23.49180045 -21.69610596 20.75613403 C-21.35659912 19.9940564 -21.01709229 19.23197876 -20.66729736 18.44680786 C-20.01718845 16.98681217 -19.38030705 15.52081657 -18.7600708 14.04788208 C-15.29255178 6.35923658 -8.81914754 -0.02013504 0 0 Z " fill="#EFA037" transform="translate(222.65704345703125,183.75949096679688)"/>
<path d="M0 0 C2.65250781 2.15538938 5.22996229 4.37235318 7.79296875 6.6328125 C8.42332031 7.13167969 9.05367187 7.63054687 9.703125 8.14453125 C15.25158035 12.55549006 19.48196619 18.04390561 23.79296875 23.6328125 C24.39109375 24.40367187 24.98921875 25.17453125 25.60546875 25.96875 C35.89447198 39.92559234 41.89243125 54.8304971 45.79296875 71.6328125 C45.97617676 72.40238281 46.15938477 73.17195313 46.34814453 73.96484375 C52.80462503 102.13409199 46.42605238 132.83059494 31.47949219 157.37255859 C27.11668748 164.20483964 22.16257718 170.56487187 16.79296875 176.6328125 C15.80103516 177.76783203 15.80103516 177.76783203 14.7890625 178.92578125 C1.17704422 193.51931128 -18.94132507 204.84975612 -38.20703125 209.6328125 C-40.09808594 210.18775391 -40.09808594 210.18775391 -42.02734375 210.75390625 C-72.63435233 219.21798651 -103.64649701 212.67578388 -130.77099609 197.52807617 C-137.16915412 193.82464724 -142.68750719 189.56095898 -148.20703125 184.6328125 C-149.28711072 183.77453507 -150.36989692 182.9196362 -151.45703125 182.0703125 C-172.02934544 163.83576129 -186.54835182 133.91625004 -188.42553711 106.43383789 C-189.15385366 85.01588022 -187.37613948 66.13274849 -178.20703125 46.6328125 C-177.89137207 45.94977051 -177.57571289 45.26672852 -177.25048828 44.56298828 C-163.82457882 16.00123512 -137.87993609 -6.38850793 -108.26660156 -17.06689453 C-71.99623567 -29.06518477 -30.77799175 -22.71798173 0 0 Z M-152.40234375 19.5859375 C-164.75304412 33.59409116 -172.8638699 48.75727269 -178.20703125 66.6328125 C-178.71943359 68.32857422 -178.71943359 68.32857422 -179.2421875 70.05859375 C-186.0009331 97.31362831 -180.95676736 127.56175318 -167.01220703 151.70117188 C-151.60928949 177.07925439 -128.03510566 195.87284969 -99.20703125 203.6328125 C-98.16417969 203.93058594 -97.12132812 204.22835937 -96.046875 204.53515625 C-68.55570949 211.26072887 -37.68956355 206.19281407 -13.35839844 191.93530273 C12.46523519 176.07694311 29.25529677 152.60640146 37.79296875 123.6328125 C38.11523438 122.61574219 38.4375 121.59867188 38.76953125 120.55078125 C46.24487136 92.78024206 39.50773899 63.21408296 26.109375 38.53125 C10.21043089 12.07113678 -15.14844618 -5.23621495 -44.72412109 -12.80810547 C-46.88212466 -13.34387631 -49.03934163 -13.87205569 -51.20703125 -14.3671875 C-51.99899902 -14.54894531 -52.7909668 -14.73070312 -53.60693359 -14.91796875 C-58.61469676 -15.78315976 -63.70068775 -15.55183181 -68.76953125 -15.5546875 C-69.88650391 -15.56693359 -71.00347656 -15.57917969 -72.15429688 -15.59179688 C-102.5241519 -15.64461401 -131.43867341 -2.28047462 -152.40234375 19.5859375 Z " fill="#E9A448" transform="translate(320.20703125,154.3671875)"/>
<path d="M0 0 C2.53773838 0.02512131 5.07550078 0.04792768 7.61328125 0.06835938 C13.78438484 0.1230317 19.95457831 0.20635246 26.125 0.3125 C26.1460912 1.90757623 26.16111216 3.50273348 26.17358398 5.09790039 C26.18260239 5.98619034 26.19162079 6.87448029 26.20091248 7.78968811 C25.88822891 18.18115293 19.19938282 27.24910225 12.125 34.3125 C1.5229911 43.76961741 -8.83270244 45.79728036 -22.76171875 45.60546875 C-23.94474075 45.60122391 -25.12776276 45.59697906 -26.34663391 45.59260559 C-30.08549803 45.5759564 -33.82380174 45.53832955 -37.5625 45.5 C-40.11392445 45.4849354 -42.66535744 45.47125012 -45.21679688 45.45898438 C-51.43638567 45.42609806 -57.65565278 45.37603771 -63.875 45.3125 C-63.95204281 34.69275619 -61.53171834 25.89342599 -54.875 17.3125 C-53.885 16.9825 -52.895 16.6525 -51.875 16.3125 C-51.72417969 15.70277344 -51.57335937 15.09304687 -51.41796875 14.46484375 C-50.26809593 9.9067148 -45.62051779 7.716696 -41.875 5.3125 C-28.90047999 -1.82318158 -14.31658008 -0.2471592 0 0 Z " fill="#FDBC59" transform="translate(278.875,223.6875)"/>
<path d="M0 0 C1.89150787 0.00022659 1.89150787 0.00022659 3.82122803 0.00045776 C5.19234374 0.01067022 6.56345782 0.0211022 7.93457031 0.03173828 C9.34132689 0.03547021 10.74808608 0.03831634 12.15484619 0.04031372 C15.8505577 0.04793602 19.54611106 0.06757233 23.24176025 0.08972168 C27.01564393 0.11021042 30.78955325 0.1193219 34.56347656 0.12939453 C41.9632881 0.15081966 49.36296952 0.18493852 56.76269531 0.22705078 C56.65293517 1.96998902 56.52908114 3.71204289 56.39941406 5.45361328 C56.33197998 6.42379395 56.2645459 7.39397461 56.19506836 8.39355469 C55.3079088 14.2074304 51.97523798 18.36784884 47.63769531 22.16455078 C43.47728523 25.1491928 40.63820891 25.3505548 35.63891602 25.34057617 C34.37783524 25.34050064 33.11675446 25.34042511 31.81745911 25.34034729 C30.44113119 25.33524067 29.06480368 25.33002467 27.68847656 25.32470703 C26.28028921 25.32284164 24.8721012 25.32141831 23.46391296 25.32041931 C19.76002201 25.31660366 16.05617036 25.3067815 12.35229492 25.29571533 C8.57178275 25.28548075 4.79126422 25.2809173 1.01074219 25.27587891 C-6.40529134 25.26515838 -13.8212925 25.24809338 -21.23730469 25.22705078 C-21.35020572 17.39941245 -20.19926434 11.57406022 -14.70996094 5.55126953 C-9.8906861 1.39418513 -6.31338032 -0.02525352 0 0 Z " fill="#EFA23C" transform="translate(220.2373046875,281.77294921875)"/>
<path d="M0 0 C6.93 0 13.86 0 21 0 C21 0.33 21 0.66 21 1 C21.93199219 1.02578125 22.86398437 1.0515625 23.82421875 1.078125 C34.13794183 1.53697618 43.74212535 3.07277793 53 8 C53 8.66 53 9.32 53 10 C55.475 10.495 55.475 10.495 58 11 C57.67 11.99 57.34 12.98 57 14 C55.35 14 53.7 14 52 14 C52 13.34 52 12.68 52 12 C51.195625 12.020625 50.39125 12.04125 49.5625 12.0625 C47 12 47 12 46 11 C43.67249227 10.64671758 41.33738658 10.34307914 39 10.0625 C33.23839621 9.34512855 27.63967164 8.38518251 22 7 C22 6.34 22 5.68 22 5 C14.08 4.67 6.16 4.34 -2 4 C-1.34 2.68 -0.68 1.36 0 0 Z " fill="#EFA037" transform="translate(242,133)"/>
<path d="M0 0 C0.33 0 0.66 0 1 0 C0.98952637 0.99330322 0.97905273 1.98660645 0.96826172 3.01000977 C0.93186489 6.7205846 0.90902839 10.43114387 0.89013672 14.1418457 C0.88012377 15.74310974 0.8665094 17.34435571 0.84912109 18.94555664 C0.82466435 21.25671876 0.81346971 23.56763762 0.8046875 25.87890625 C0.79436493 26.58648575 0.78404236 27.29406525 0.77340698 28.02308655 C0.77235532 32.75834265 1.53211271 36.55316497 3 41 C3.99 40.505 3.99 40.505 5 40 C4.91621094 39.25878906 4.83242187 38.51757812 4.74609375 37.75390625 C3.84016115 28.38495773 4.27102513 19.36452335 5 10 C5.33 10 5.66 10 6 10 C6.00410889 10.64211426 6.00821777 11.28422852 6.01245117 11.94580078 C6.22800901 31.36669951 7.77336834 50.24144437 16.86328125 67.734375 C18 70 18 70 18 72 C16.68 71.67 15.36 71.34 14 71 C13.505 68.03 13.505 68.03 13 65 C12.34 65 11.68 65 11 65 C10.67 66.65 10.34 68.3 10 70 C5.77336998 65.77336998 4.6946026 58.66229685 3 53 C2.7952002 52.33967773 2.59040039 51.67935547 2.37939453 50.99902344 C-2.43436987 34.9953334 -3.05197195 16.39801337 0 0 Z " fill="#E9A750" transform="translate(133,229)"/>
<path d="M0 0 C0.66 0.33 1.32 0.66 2 1 C2 3.97 2 6.94 2 10 C1.34 10 0.68 10 0 10 C0.01160156 10.804375 0.02320313 11.60875 0.03515625 12.4375 C0.1076225 21.87881757 -0.22184206 31.26890577 -0.73217773 40.69726562 C-0.97372208 45.62621718 -1.11971838 50.14788703 0 55 C-1.32 55.66 -2.64 56.32 -4 57 C-6.16254292 49.9995152 -6.26700395 43.48094087 -6.1875 36.1875 C-6.18685547 35.07568359 -6.18621094 33.96386719 -6.18554688 32.81835938 C-6.08736509 14.17473019 -6.08736509 14.17473019 -4 10 C-3.34 10 -2.68 10 -2 10 C-1.93941406 9.36191406 -1.87882813 8.72382813 -1.81640625 8.06640625 C-1.73261719 7.24011719 -1.64882812 6.41382813 -1.5625 5.5625 C-1.48128906 4.73878906 -1.40007812 3.91507813 -1.31640625 3.06640625 C-1 1 -1 1 0 0 Z " fill="#EDA039" transform="translate(139,214)"/>
<path d="M0 0 C0.99 0.495 0.99 0.495 2 1 C-2.34379663 4.93895916 -7.37880228 5.18706363 -12.98046875 6.15625 C-14.47513672 6.57390625 -14.47513672 6.57390625 -16 7 C-16.33 7.99 -16.66 8.98 -17 10 C-15.02463255 9.65213292 -15.02463255 9.65213292 -13 9 C-12.67 8.34 -12.34 7.68 -12 7 C-9.03 7.33 -6.06 7.66 -3 8 C-3 8.33 -3 8.66 -3 9 C-19.59151503 13.91600445 -37.92606767 15.16119116 -55 12 C-55 11.67 -55 11.34 -55 11 C-46.42 11 -37.84 11 -29 11 C-28.67 10.34 -28.34 9.68 -28 9 C-29.16273438 8.97421875 -30.32546875 8.9484375 -31.5234375 8.921875 C-40.22991311 8.64435952 -48.60779344 7.95829328 -57.125 6.0625 C-58.28781494 5.80774902 -58.28781494 5.80774902 -59.47412109 5.54785156 C-61.33520798 5.10583817 -63.17159432 4.56209687 -65 4 C-65.33 3.34 -65.66 2.68 -66 2 C-64.61167969 2.32484375 -64.61167969 2.32484375 -63.1953125 2.65625 C-42.46833601 7.10886802 -20.20738443 6.73579481 0 0 Z " fill="#E8A550" transform="translate(285,355)"/>
<path d="M0 0 C9.04630256 15.95508216 3.4366391 40.64590267 -0.94140625 57.1796875 C-1.46541016 59.07074219 -1.46541016 59.07074219 -2 61 C-2.33 61 -2.66 61 -3 61 C-2.85962479 59.18706911 -2.71255111 57.3746557 -2.5625 55.5625 C-2.48128906 54.55316406 -2.40007812 53.54382813 -2.31640625 52.50390625 C-2 50 -2 50 -1 49 C-0.79224439 47.33795513 -0.63281745 45.66970509 -0.5 44 C-0.11111111 39.11111111 -0.11111111 39.11111111 1 38 C1.07179964 36.48071962 1.08392007 34.95832518 1.0625 33.4375 C1.05347656 32.61121094 1.04445313 31.78492188 1.03515625 30.93359375 C1.02355469 30.29550781 1.01195312 29.65742188 1 29 C0.34 29 -0.32 29 -1 29 C-1.66 31.97 -2.32 34.94 -3 38 C-3.33 38 -3.66 38 -4 38 C-4 27.77 -4 17.54 -4 7 C-2.68 7 -1.36 7 0 7 C0 4.69 0 2.38 0 0 Z " fill="#EAA54B" transform="translate(365,226)"/>
<path d="M0 0 C6.3050262 0.34176778 11.8533299 1.10816456 17.796875 3.23828125 C28.12866067 6.81044119 39.1886542 6.61286884 50 7 C49.67 8.32 49.34 9.64 49 11 C21.86990226 11.5156724 21.86990226 11.5156724 9 6 C6.00722097 4.7756813 3.15903167 3.70200704 0 3 C0 2.01 0 1.02 0 0 Z " fill="#EFA037" transform="translate(208,356)"/>
<path d="M0 0 C0.33 0 0.66 0 1 0 C0.855625 0.969375 0.71125 1.93875 0.5625 2.9375 C-0.03894446 7.28126556 -0.51573497 11.64161474 -1 16 C17.81 16 36.62 16 56 16 C56 16.33 56 16.66 56 17 C52.42664606 17.81742961 49.13785349 18.1221027 45.4753418 18.11352539 C44.39459885 18.11344986 43.3138559 18.11337433 42.20036316 18.11329651 C41.0449855 18.10813522 39.88960785 18.10297394 38.69921875 18.09765625 C36.91195122 18.09553383 36.91195122 18.09553383 35.08857727 18.09336853 C31.28819249 18.08777728 27.48786693 18.07522632 23.6875 18.0625 C21.10872481 18.05748387 18.5299487 18.05292116 15.95117188 18.04882812 C9.63409443 18.03781071 3.31705145 18.02108122 -3 18 C-3.05248949 13.11847766 -3.05958843 9.1787653 -1.5 4.5 C-1.2215625 3.6440625 -0.943125 2.788125 -0.65625 1.90625 C-0.33140625 0.96265625 -0.33140625 0.96265625 0 0 Z " fill="#F2C073" transform="translate(218,251)"/>
<path d="M0 0 C6.16356805 1.6658292 11.48259656 4.87805286 17 8 C15.68 9.32 14.36 10.64 13 12 C15.475 12.495 15.475 12.495 18 13 C18.061875 13.61875 18.12375 14.2375 18.1875 14.875 C18.828919 17.27761141 18.828919 17.27761141 21.5625 18.25 C22.366875 18.4975 23.17125 18.745 24 19 C24 19.66 24 20.32 24 21 C20.87128086 19.54044864 17.99535331 17.76328901 15.07519531 15.92797852 C7.96557783 11.49136388 0.90211399 8.09983334 -6.953125 5.19140625 C-10 4 -10 4 -13 2 C-8.53160785 1.78721942 -5.17737474 2.40861915 -1 4 C-1 4.66 -1 5.32 -1 6 C1.47266765 5.65555119 1.47266765 5.65555119 4 5 C4.33 4.34 4.66 3.68 5 3 C2.525 2.505 2.525 2.505 0 2 C0 1.34 0 0.68 0 0 Z " fill="#E8A347" transform="translate(295,141)"/>
<path d="M0 0 C0.99 0.66 1.98 1.32 3 2 C3.328125 4.12890625 3.328125 4.12890625 3.25 6.5625 C3.23453125 7.36816406 3.2190625 8.17382812 3.203125 9.00390625 C3 11 3 11 2 12 C1.84025503 13.5175772 1.72264738 15.03966579 1.625 16.5625 C1.18985116 21.52034333 -0.05537646 25.43436212 -2 30 C-2.99 29.34 -3.98 28.68 -5 28 C-5.328125 25.35546875 -5.328125 25.35546875 -5.25 22.1875 C-5.23453125 21.14980469 -5.2190625 20.11210937 -5.203125 19.04296875 C-5.01807563 16.27078678 -4.61981519 13.70419368 -4 11 C-3.34 11 -2.68 11 -2 11 C-1.93941406 10.37351562 -1.87882812 9.74703125 -1.81640625 9.1015625 C-1.73261719 8.28429687 -1.64882813 7.46703125 -1.5625 6.625 C-1.48128906 5.81289063 -1.40007812 5.00078125 -1.31640625 4.1640625 C-1 2 -1 2 0 0 Z " fill="#EEA13A" transform="translate(364,253)"/>
<path d="M0 0 C6.93 0 13.86 0 21 0 C21 0.33 21 0.66 21 1 C26.445 1.495 26.445 1.495 32 2 C32 3.32 32 4.64 32 6 C28.7 6 25.4 6 22 6 C22 5.67 22 5.34 22 5 C14.08 4.67 6.16 4.34 -2 4 C-1.34 2.68 -0.68 1.36 0 0 Z " fill="#EFA035" transform="translate(242,133)"/>
<path d="M0 0 C-3.1964086 1.06546953 -5.65747276 1.07427838 -9 1 C-9 0.34 -9 -0.32 -9 -1 C-20.46826197 -4.44798055 -30.87279878 -5.54763066 -42.8125 -5.3125 C-44.3522013 -5.30096483 -45.89191684 -5.2911928 -47.43164062 -5.28320312 C-54.82441109 -5.40881006 -54.82441109 -5.40881006 -62 -4 C-63.72795352 -3.93197033 -65.45835365 -3.91504355 -67.1875 -3.9375 C-68.53908203 -3.95103516 -68.53908203 -3.95103516 -69.91796875 -3.96484375 C-70.60503906 -3.97644531 -71.29210937 -3.98804688 -72 -4 C-72 -4.33 -72 -4.66 -72 -5 C-48.09486295 -11.51958283 -22.87182052 -8.92367368 0 0 Z " fill="#FEF1D1" transform="translate(293,147)"/>
<path d="M0 0 C37.29 0 74.58 0 113 0 C113 0.33 113 0.66 113 1 C112.15654762 1.00496522 112.15654762 1.00496522 111.29605579 1.01003075 C97.60808342 1.09128432 83.92022273 1.18350925 70.23240376 1.28752708 C63.6130464 1.33749799 56.99370506 1.38382815 50.37426758 1.421875 C43.98756469 1.45871748 37.60099559 1.50507497 31.21440697 1.55806351 C28.77636242 1.5766129 26.33828919 1.59171883 23.9002018 1.60334396 C20.48842255 1.62019677 17.07695007 1.64923022 13.6652832 1.68115234 C12.65467834 1.68331253 11.64407349 1.68547272 10.60284424 1.68769836 C4.08079835 1.75666588 4.08079835 1.75666588 -2 4 C-1.34 2.68 -0.68 1.36 0 0 Z " fill="#FEF7DB" transform="translate(215,183)"/>
<path d="M0 0 C3 1 3 1 4.31640625 2.96875 C7.10290604 8.62910067 8.89710973 13.7837094 10 20 C10.99 20 11.98 20 13 20 C15.44674104 27.52955428 18.34696421 36.66762538 14.98046875 44.31640625 C14.49513672 45.14978516 14.49513672 45.14978516 14 46 C13.85304688 44.98164063 13.70609375 43.96328125 13.5546875 42.9140625 C11.22603816 27.84442607 6.80751698 13.67527747 0 0 Z " fill="#FEF9E8" transform="translate(353,192)"/>
<path d="M0 0 C1.08089401 0.00015106 2.16178802 0.00030212 3.2754364 0.00045776 C5.02398674 0.01594162 5.02398674 0.01594162 6.80786133 0.03173828 C8.00220291 0.03456818 9.19654449 0.03739807 10.42707825 0.04031372 C14.24811755 0.05152401 18.06892392 0.07663042 21.88989258 0.10205078 C24.47777982 0.11207947 27.06567073 0.12120551 29.65356445 0.12939453 C36.00325353 0.15146614 42.35280642 0.18495218 48.70239258 0.22705078 C48.73019892 1.8147597 48.74995437 3.40261084 48.76635742 4.99047852 C48.7782309 5.87468979 48.79010437 6.75890106 48.80233765 7.66990662 C48.66439886 11.19913899 47.66778723 14.03928744 46.32739258 17.28955078 C45.8865332 18.39427734 45.44567383 19.49900391 44.99145508 20.63720703 C43.70239258 23.22705078 43.70239258 23.22705078 41.70239258 24.22705078 C41.59402805 22.79122077 41.51663091 21.35303058 41.45239258 19.91455078 C41.40598633 19.11404297 41.35958008 18.31353516 41.31176758 17.48876953 C41.70239258 15.22705078 41.70239258 15.22705078 45.70239258 12.22705078 C46.36239258 8.59705078 47.02239258 4.96705078 47.70239258 1.22705078 C29.22239258 1.55705078 10.74239258 1.88705078 -8.29760742 2.22705078 C-4.95143851 -0.0037285 -3.90166783 -0.01818959 0 0 Z " fill="#F2C070" transform="translate(256.297607421875,223.77294921875)"/>
<path d="M0 0 C-6 2 -6 2 -12 4 C-10.03177114 5.96822886 -6.65191291 5.66248381 -4 6 C-4 5.34 -4 4.68 -4 4 C0.62 4 5.24 4 10 4 C10 4.33 10 4.66 10 5 C9.34257812 5.08636719 8.68515625 5.17273438 8.0078125 5.26171875 C-1.57165851 6.67657287 -10.72152991 9.29893426 -20 12 C-20 11.34 -20 10.68 -20 10 C-18.68 9.34 -17.36 8.68 -16 8 C-18.97 7.67 -21.94 7.34 -25 7 C-22.17945853 4.17945853 -18.79508478 3.54381581 -15.0625 2.4375 C-13.61586175 1.99877593 -12.1692463 1.55997671 -10.72265625 1.12109375 C-9.49417969 0.75113281 -8.26570313 0.38117188 -7 0 C-3.86650268 -1.04449911 -3.01031744 -0.93423645 0 0 Z " fill="#E8A855" transform="translate(228,135)"/>
<path d="M0 0 C3.90871733 3.43682207 6.11019041 7.36738204 8.5625 11.875 C8.94857422 12.56980469 9.33464844 13.26460937 9.73242188 13.98046875 C16 25.31976682 16 25.31976682 16 28 C15.34 28 14.68 28 14 28 C13.73445313 27.36191406 13.46890625 26.72382813 13.1953125 26.06640625 C12.84210938 25.24011719 12.48890625 24.41382813 12.125 23.5625 C11.77695312 22.73878906 11.42890625 21.91507813 11.0703125 21.06640625 C10.1755063 18.84253285 10.1755063 18.84253285 8 18 C7.8453125 16.824375 7.8453125 16.824375 7.6875 15.625 C7.2366916 12.75511021 7.2366916 12.75511021 4.4375 11.1875 C3.633125 10.795625 2.82875 10.40375 2 10 C2.33 11.65 2.66 13.3 3 15 C3.66 15 4.32 15 5 15 C4.67 16.32 4.34 17.64 4 19 C3.16151196 17.54462432 2.32936066 16.08559627 1.5 14.625 C1.0359375 13.81289062 0.571875 13.00078125 0.09375 12.1640625 C-1 10 -1 10 -1 8 C-0.34 7.67 0.32 7.34 1 7 C0.67 4.69 0.34 2.38 0 0 Z " fill="#E7A753" transform="translate(344,179)"/>
<path d="M0 0 C1.13732426 3.40401948 0.83989957 5.77456664 0.0625 9.25 C-0.13214844 10.14203125 -0.32679688 11.0340625 -0.52734375 11.953125 C-0.68332031 12.62859375 -0.83929688 13.3040625 -1 14 C-1.66 14 -2.32 14 -3 14 C-3.33 15.32 -3.66 16.64 -4 18 C-4.66 18 -5.32 18 -6 18 C-6 19.32 -6 20.64 -6 22 C-6.66 22.33 -7.32 22.66 -8 23 C-8.65555119 25.52733235 -8.65555119 25.52733235 -9 28 C-9.66 28 -10.32 28 -11 28 C-11.33 26.02 -11.66 24.04 -12 22 C-11.01 22 -10.02 22 -9 22 C-9 20.35 -9 18.7 -9 17 C-8.01 16.67 -7.02 16.34 -6 16 C-5.8453125 14.6078125 -5.8453125 14.6078125 -5.6875 13.1875 C-4.93507016 9.69896164 -4.37582748 9.37582748 -2 7 C-1.25613932 4.69011685 -0.57809297 2.35684056 0 0 Z " fill="#EEA033" transform="translate(357,287)"/>
<path d="M0 0 C1.03125 0.268125 2.0625 0.53625 3.125 0.8125 C2.135 1.3075 2.135 1.3075 1.125 1.8125 C0.795 2.8025 0.465 3.7925 0.125 4.8125 C-0.865 4.4825 -1.855 4.1525 -2.875 3.8125 C-2.875 5.4625 -2.875 7.1125 -2.875 8.8125 C-8.5 10.9375 -8.5 10.9375 -11.875 9.8125 C-10.12839343 3.69937701 -6.57273207 -0.31803542 0 0 Z " fill="#EF9F39" transform="translate(329.875,331.1875)"/>
<path d="M0 0 C0.33 0.66 0.66 1.32 1 2 C0.0625 4.625 0.0625 4.625 -1 7 C-0.34 6.34 0.32 5.68 1 5 C3.625 4.375 3.625 4.375 6 4 C4.41379873 7.87939509 1.90079013 10.33361087 -1.0625 13.25 C-1.96097656 14.14203125 -2.85945313 15.0340625 -3.78515625 15.953125 C-6 18 -6 18 -7 18 C-7 16.35 -7 14.7 -7 13 C-6.01 13 -5.02 13 -4 13 C-3.67 12.01 -3.34 11.02 -3 10 C-4.32 9.34 -5.64 8.68 -7 8 C-4.69 5.36 -2.38 2.72 0 0 Z " fill="#E6A44C" transform="translate(334,322)"/>
<path d="M0 0 C0.66 0 1.32 0 2 0 C2 1.65 2 3.3 2 5 C1.01 5.495 1.01 5.495 0 6 C-0.28875 6.99 -0.5775 7.98 -0.875 9 C-1.24625 9.99 -1.6175 10.98 -2 12 C-4.0625 12.6875 -4.0625 12.6875 -6 13 C-6.33 13.99 -6.66 14.98 -7 16 C-7.66 16 -8.32 16 -9 16 C-8.74282219 10.72785482 -6.82766483 8.12870062 -3.47265625 4.3203125 C-2 3 -2 3 0 3 C0 2.01 0 1.02 0 0 Z " fill="#EFA039" transform="translate(161,174)"/>
<path d="M0 0 C-3.625 3 -3.625 3 -7 3 C-7 3.66 -7 4.32 -7 5 C-9.31 4.67 -11.62 4.34 -14 4 C-14 4.99 -14 5.98 -14 7 C-16.97 6.505 -16.97 6.505 -20 6 C-17.82575883 3.49962266 -16.26954202 2.56371414 -13 2 C-13 1.34 -13 0.68 -13 0 C-8.38926889 -1.29676812 -4.66159911 -0.71109139 0 0 Z " fill="#EF9F38" transform="translate(215,142)"/>
<path d="M0 0 C-0.33 1.32 -0.66 2.64 -1 4 C-3.97 4.66 -6.94 5.32 -10 6 C-10 6.66 -10 7.32 -10 8 C-11.65 8.66 -13.3 9.32 -15 10 C-15.99 9.01 -16.98 8.02 -18 7 C-16.35 6.67 -14.7 6.34 -13 6 C-13 5.34 -13 4.68 -13 4 C-8.84581922 0.08320098 -5.58975905 -1.86325302 0 0 Z " fill="#EFA038" transform="translate(308,349)"/>
<path d="M0 0 C4.23429756 1.31061591 8.07407404 2.94356259 12 5 C12 5.33 12 5.66 12 6 C10.02 6 8.04 6 6 6 C6.33 7.32 6.66 8.64 7 10 C0.27954125 7.80962826 -6.36724003 5.44234339 -13 3 C-13 2.67 -13 2.34 -13 2 C-8.53160785 1.78721942 -5.17737474 2.40861915 -1 4 C-1 4.66 -1 5.32 -1 6 C1.47266765 5.65555119 1.47266765 5.65555119 4 5 C4.33 4.34 4.66 3.68 5 3 C2.525 2.505 2.525 2.505 0 2 C0 1.34 0 0.68 0 0 Z " fill="#E5A755" transform="translate(295,141)"/>
<path d="M0 0 C3.99831522 1.85636064 7.17251978 3.46325101 9.3125 7.4375 C10.03620881 10.1349601 9.95651196 11.41741772 9 14 C8.34 14 7.68 14 7 14 C6.34 12.35 5.68 10.7 5 9 C4.34 9 3.68 9 3 9 C0.56839395 5.63316085 0 4.26649636 0 0 Z " fill="#EFA038" transform="translate(336,173)"/>
<path d="M0 0 C7.25398658 0.47567125 13.26812223 2.29466594 20 5 C20 5.33 20 5.66 20 6 C18.02 6 16.04 6 14 6 C14 5.34 14 4.68 14 4 C8.06 3.01 8.06 3.01 2 2 C2 3.32 2 4.64 2 6 C3.32 6 4.64 6 6 6 C6 6.66 6 7.32 6 8 C0.72 7.01 -4.56 6.02 -10 5 C-10 4.67 -10 4.34 -10 4 C-6.7 4 -3.4 4 0 4 C0 2.68 0 1.36 0 0 Z " fill="#E6A757" transform="translate(274,135)"/>
<path d="M0 0 C2.25245881 2.68841859 3.88213958 4.64641875 5 8 C4.01 8 3.02 8 2 8 C2.4640625 9.0828125 2.4640625 9.0828125 2.9375 10.1875 C3.92560539 12.80307309 4.5287754 15.25118982 5 18 C0.99027798 14.32442148 -1.45335415 10.81033104 -4 6 C-3.01 6 -2.02 6 -1 6 C-0.67 4.02 -0.34 2.04 0 0 Z " fill="#E6A74E" transform="translate(155,308)"/>
<path d="M0 0 C0.04254356 1.99954746 0.04080783 4.00041636 0 6 C-2.04698414 8.04698414 -6.30411241 7.70045693 -9 8 C-9 8.66 -9 9.32 -9 10 C-10.32 10.33 -11.64 10.66 -13 11 C-13 10.01 -13 9.02 -13 8 C-12.34 8 -11.68 8 -11 8 C-10.79375 7.21625 -10.5875 6.4325 -10.375 5.625 C-9 3 -9 3 -6 1.75 C-5.01 1.5025 -4.02 1.255 -3 1 C-1 0 -1 0 0 0 Z " fill="#EAA23F" transform="translate(194,148)"/>
<path d="M0 0 C0 0.99 0 1.98 0 3 C-7.42857143 4.28571429 -7.42857143 4.28571429 -11 3 C-11.33 3.99 -11.66 4.98 -12 6 C-13.32 6 -14.64 6 -16 6 C-16 5.34 -16 4.68 -16 4 C-16.66 3.34 -17.32 2.68 -18 2 C-11.88019467 0.59545452 -6.28260706 -0.23268915 0 0 Z " fill="#EFA034" transform="translate(284,359)"/>
<path d="M0 0 C3 1 3 1 4.31640625 2.96875 C7.10290604 8.62910067 8.89710973 13.7837094 10 20 C10.99 20 11.98 20 13 20 C12.67 22.97 12.34 25.94 12 29 C9.79984876 25.69977313 8.87663829 22.78045268 7.6875 19 C5.57747828 12.43362517 3.03093344 6.20374035 0 0 Z " fill="#FEF4DA" transform="translate(353,192)"/>
<path d="M0 0 C1.11501892 0.00424484 1.11501892 0.00424484 2.25256348 0.00857544 C4.59563217 0.01965093 6.93829947 0.04473022 9.28125 0.0703125 C10.88280693 0.08035869 12.48436993 0.08948165 14.0859375 0.09765625 C17.9845265 0.1195486 21.88282052 0.15398864 25.78125 0.1953125 C25.78125 0.5253125 25.78125 0.8553125 25.78125 1.1953125 C24.91846436 1.22036865 24.05567871 1.2454248 23.16674805 1.27124023 C19.96301231 1.36642635 16.75943463 1.46565694 13.5559082 1.56762695 C12.16989017 1.61091468 10.78382094 1.65259414 9.39770508 1.69262695 C7.40433202 1.75047834 5.41114435 1.81461026 3.41796875 1.87890625 C2.21873779 1.91556396 1.01950684 1.95222168 -0.21606445 1.98999023 C-3.26869349 2.07264275 -3.26869349 2.07264275 -6.21875 3.1953125 C-7.94670352 3.26334217 -9.67710365 3.28026895 -11.40625 3.2578125 C-12.75783203 3.24427734 -12.75783203 3.24427734 -14.13671875 3.23046875 C-14.82378906 3.21886719 -15.51085937 3.20726562 -16.21875 3.1953125 C-16.21875 2.8653125 -16.21875 2.5353125 -16.21875 2.1953125 C-10.65016016 0.61754538 -5.77060542 -0.08480344 0 0 Z " fill="#FFFCED" transform="translate(237.21875,139.8046875)"/>
<path d="M0 0 C1.04702186 3.7264085 1.07442057 7.13013042 1 11 C-0.32 11.33 -1.64 11.66 -3 12 C-3.12375 12.969375 -3.2475 13.93875 -3.375 14.9375 C-3.58125 15.948125 -3.7875 16.95875 -4 18 C-4.66 18.33 -5.32 18.66 -6 19 C-6.65555119 21.52733235 -6.65555119 21.52733235 -7 24 C-7.99 24 -8.98 24 -10 24 C-8.88425965 20.14562423 -7.38568648 16.68350856 -5.5625 13.125 C-3.3635544 8.8312009 -1.60038787 4.54847079 0 0 Z " fill="#E7A754" transform="translate(355,285)"/>
<path d="M0 0 C0.99 0 1.98 0 3 0 C3.70180531 1.4096347 4.38593958 2.82807641 5.0625 4.25 C5.44535156 5.03890625 5.82820313 5.8278125 6.22265625 6.640625 C7.08564091 9.25993522 6.93045933 10.44855176 6 13 C5.01 13 4.02 13 3 13 C2.49242138 11.58603098 1.99425075 10.16868271 1.5 8.75 C1.08234375 7.56664062 1.08234375 7.56664062 0.65625 6.359375 C0 4 0 4 0 0 Z " fill="#EEA035" transform="translate(352,198)"/>
<path d="M0 0 C0.99 0.66 1.98 1.32 3 2 C-0.3 8.93 -3.6 15.86 -7 23 C-7.66 21.68 -8.32 20.36 -9 19 C-8.67 18.34 -8.34 17.68 -8 17 C-7.34 17 -6.68 17 -6 17 C-6 15.68 -6 14.36 -6 13 C-5.34 13 -4.68 13 -4 13 C-3.67 10.36 -3.34 7.72 -3 5 C-2.01 5 -1.02 5 0 5 C0 3.35 0 1.7 0 0 Z " fill="#E6A652" transform="translate(197,267)"/>
<path d="M0 0 C0.33 0 0.66 0 1 0 C2.15638585 10.97281688 -1.24862978 21.49064386 -4 32 C-4.33 32 -4.66 32 -5 32 C-4.85962479 30.18706911 -4.71255111 28.3746557 -4.5625 26.5625 C-4.48128906 25.55316406 -4.40007812 24.54382813 -4.31640625 23.50390625 C-4 21 -4 21 -3 20 C-2.79224439 18.33795513 -2.63281745 16.66970509 -2.5 15 C-2.11111111 10.11111111 -2.11111111 10.11111111 -1 9 C-0.76807135 7.48530552 -0.58784762 5.96245438 -0.4375 4.4375 C-0.35371094 3.61121094 -0.26992188 2.78492188 -0.18359375 1.93359375 C-0.12300781 1.29550781 -0.06242187 0.65742188 0 0 Z " fill="#E1A65A" transform="translate(367,255)"/>
<path d="M0 0 C3.98175544 2.10148204 6.35039045 4.36905358 9 8 C7.68 7.67 6.36 7.34 5 7 C4.67 7.99 4.34 8.98 4 10 C0.34683329 8.75023244 -0.78065836 8.32901247 -3 5 C-1.02 5 0.96 5 3 5 C3 4.34 3 3.68 3 3 C2.01 2.67 1.02 2.34 0 2 C0 1.34 0 0.68 0 0 Z " fill="#E5A64D" transform="translate(322,157)"/>
<path d="M0 0 C1.13732426 3.40401948 0.83989957 5.77456664 0.0625 9.25 C-0.13214844 10.14203125 -0.32679688 11.0340625 -0.52734375 11.953125 C-0.68332031 12.62859375 -0.83929688 13.3040625 -1 14 C-1.66 14 -2.32 14 -3 14 C-3.66 16.97 -4.32 19.94 -5 23 C-5.66 23 -6.32 23 -7 23 C-5.77078205 14.87248429 -3.1149283 7.58520709 0 0 Z " fill="#E6AB5A" transform="translate(142,201)"/>
<path d="M0 0 C-1.74915445 1.43852875 -3.49935795 2.87578198 -5.25 4.3125 C-6.71179688 5.51326172 -6.71179688 5.51326172 -8.203125 6.73828125 C-10.4366262 8.54442258 -12.68687263 10.29819915 -15 12 C-15 11.01 -15 10.02 -15 9 C-14.34 9 -13.68 9 -13 9 C-12.7525 8.236875 -12.505 7.47375 -12.25 6.6875 C-10.01743219 1.8874792 -5.21206237 -1.73735412 0 0 Z " fill="#FEF2D8" transform="translate(182,154)"/>
<path d="M0 0 C0.66 0 1.32 0 2 0 C0.65072455 4.53847198 -1.19159348 8.31932246 -3.625 12.375 C-4.25664062 13.43460937 -4.88828125 14.49421875 -5.5390625 15.5859375 C-6.02117187 16.38257813 -6.50328125 17.17921875 -7 18 C-7.66 16.68 -8.32 15.36 -9 14 C-8.01 14 -7.02 14 -6 14 C-6 12.35 -6 10.7 -6 9 C-5.01 8.67 -4.02 8.34 -3 8 C-3 6.68 -3 5.36 -3 4 C-2.34 3.67 -1.68 3.34 -1 3 C-0.67 2.01 -0.34 1.02 0 0 Z " fill="#E6A14E" transform="translate(354,301)"/>
<path d="M0 0 C0.66 0.33 1.32 0.66 2 1 C-4.78499458 6.75935587 -14.50485983 6.33169745 -23 6 C-23 5.67 -23 5.34 -23 5 C-22.40985107 4.88406494 -21.81970215 4.76812988 -21.21166992 4.64868164 C-18.5365443 4.12197433 -15.86202044 3.59227135 -13.1875 3.0625 C-12.25873047 2.88009766 -11.32996094 2.69769531 -10.37304688 2.50976562 C-9.48037109 2.33251953 -8.58769531 2.15527344 -7.66796875 1.97265625 C-6.84578857 1.81031494 -6.0236084 1.64797363 -5.17651367 1.48071289 C-2.83778735 1.00381086 -2.83778735 1.00381086 0 0 Z " fill="#E7AD61" transform="translate(285,355)"/>
<path d="M0 0 C5.5892934 -0.28420136 8.27268165 -0.15154557 13 3 C15.32873375 3.68255989 17.66182791 4.35050775 20 5 C20.99 5.66 21.98 6.32 23 7 C15.19465209 6.27392112 6.55110052 4.36740035 0 0 Z " fill="#E7AD60" transform="translate(205,359)"/>
<path d="M0 0 C3.125 0.375 3.125 0.375 6 1 C6 2.98 6 4.96 6 7 C2.62496331 5.8141763 0.35277269 4.72426311 -2 2 C-1.34 1.34 -0.68 0.68 0 0 Z " fill="#E8A23E" transform="translate(181,340)"/>
<path d="M0 0 C0.66 0 1.32 0 2 0 C0.36041242 5.23272633 -1.38952035 10.15196636 -4 15 C-4.33 15 -4.66 15 -5 15 C-5.36666667 7.66666667 -5.36666667 7.66666667 -3.625 4.5 C-2 3 -2 3 0 3 C0 2.01 0 1.02 0 0 Z " fill="#E7A44F" transform="translate(187,290)"/>
<path d="M0 0 C1.010625 0.28875 2.02125 0.5775 3.0625 0.875 C2.0725 1.37 2.0725 1.37 1.0625 1.875 C0.7325 2.865 0.4025 3.855 0.0625 4.875 C-0.68 4.648125 -1.4225 4.42125 -2.1875 4.1875 C-4.99664993 3.58023302 -4.99664993 3.58023302 -7.25 5.3125 C-7.806875 5.828125 -8.36375 6.34375 -8.9375 6.875 C-9.5975 6.545 -10.2575 6.215 -10.9375 5.875 C-5.17820022 -0.16438731 -5.17820022 -0.16438731 0 0 Z " fill="#EAA036" transform="translate(329.9375,331.125)"/>
<path d="M0 0 C0.99 0.33 1.98 0.66 3 1 C2.6875 3.375 2.6875 3.375 2 6 C-1 8 -1 8 -4 8 C-3.50168276 4.31245243 -2.89932357 2.39509338 0 0 Z " fill="#EF9F37" transform="translate(337,321)"/>
<path d="M0 0 C0.99 0 1.98 0 3 0 C1.74602127 7.01694482 0.42415912 14.01556007 -1 21 C-1.33 21 -1.66 21 -2 21 C-2 17.04 -2 13.08 -2 9 C-1.34 9 -0.68 9 0 9 C0 6.03 0 3.06 0 0 Z " fill="#E6A650" transform="translate(141,215)"/>
<path d="M0 0 C2.23551759 3.35327639 2.17283528 3.90743657 1.625 7.6875 C1.51414063 8.49574219 1.40328125 9.30398437 1.2890625 10.13671875 C1.19367188 10.75160156 1.09828125 11.36648437 1 12 C0.01 12 -0.98 12 -2 12 C-2.28571429 3.42857143 -2.28571429 3.42857143 0 0 Z " fill="#F09F34" transform="translate(143,203)"/>
<path d="M0 0 C1.98 0.66 3.96 1.32 6 2 C6 2.66 6 3.32 6 4 C6.66 4 7.32 4 8 4 C8 4.66 8 5.32 8 6 C6.02 6.33 4.04 6.66 2 7 C2 6.01 2 5.02 2 4 C1.34 4 0.68 4 0 4 C0 2.68 0 1.36 0 0 Z " fill="#EEA037" transform="translate(188,345)"/>
<path d="M0 0 C0.33 0 0.66 0 1 0 C1.17942163 3.94727588 1.09350689 6.5980513 -1 10 C-1.66 10 -2.32 10 -3 10 C-3 11.32 -3 12.64 -3 14 C-3.66 14 -4.32 14 -5 14 C-5 14.99 -5 15.98 -5 17 C-5.66 17 -6.32 17 -7 17 C-5.24009216 11.08030998 -2.60305395 5.58365008 0 0 Z " fill="#E6AB5E" transform="translate(206,194)"/>
<path d="M0 0 C2.97 0.33 5.94 0.66 9 1 C9 1.33 9 1.66 9 2 C6.93918639 2.50690584 4.87626474 3.00524619 2.8125 3.5 C1.08966797 3.91765625 1.08966797 3.91765625 -0.66796875 4.34375 C-3.56818829 4.91495385 -6.06096385 5.13283779 -9 5 C-8.67 4.34 -8.34 3.68 -8 3 C-5.66666667 2.66666667 -3.33333333 2.33333333 -1 2 C-0.67 1.34 -0.34 0.68 0 0 Z " fill="#E2A54E" transform="translate(273,362)"/>
<path d="M0 0 C6.625 0.75 6.625 0.75 10 3 C7 5 7 5 3 5 C3 4.34 3 3.68 3 3 C2.01 3 1.02 3 0 3 C0 2.01 0 1.02 0 0 Z " fill="#EFA037" transform="translate(198,352)"/>
<path d="M0 0 C0.66 0.33 1.32 0.66 2 1 C0.71034824 2.37562854 -0.62689293 3.70766393 -2 5 C-2.66 5 -3.32 5 -4 5 C-4 5.66 -4 6.32 -4 7 C-5.96147874 8.38938077 -7.96166576 9.7260411 -10 11 C-10.66 10.34 -11.32 9.68 -12 9 C-8.04 6.03 -4.08 3.06 0 0 Z " fill="#FEF4DC" transform="translate(326,340)"/>
<path d="M0 0 C4.875 1.875 4.875 1.875 6 3 C6.04063832 4.66617115 6.042721 6.33388095 6 8 C5.01 8.33 4.02 8.66 3 9 C3 7.68 3 6.36 3 5 C2.34 5 1.68 5 1 5 C0.67 3.35 0.34 1.7 0 0 Z " fill="#F0A037" transform="translate(346,189)"/>
<path d="M0 0 C0.33 0.66 0.66 1.32 1 2 C-0.2739589 4.03833424 -1.61061923 6.03852126 -3 8 C-3.66 8 -4.32 8 -5 8 C-5.309375 8.78375 -5.61875 9.5675 -5.9375 10.375 C-7 13 -7 13 -8 15 C-8.99 14.67 -9.98 14.34 -11 14 C-10.45730469 13.32453125 -9.91460937 12.6490625 -9.35546875 11.953125 C-8.64003906 11.06109375 -7.92460937 10.1690625 -7.1875 9.25 C-6.47980469 8.36828125 -5.77210938 7.4865625 -5.04296875 6.578125 C-3.32494998 4.41007071 -1.64626024 2.22271099 0 0 Z " fill="#FDEECF" transform="translate(167,175)"/>
<path d="M0 0 C0.99 0.33 1.98 0.66 3 1 C0.03 4.63 -2.94 8.26 -6 12 C-7 9 -7 9 -5.5625 5.8125 C-5.046875 4.884375 -4.53125 3.95625 -4 3 C-3.01 3 -2.02 3 -1 3 C-0.67 2.01 -0.34 1.02 0 0 Z " fill="#FEF3D9" transform="translate(160,170)"/>
<path d="M0 0 C1.0828125 0.495 1.0828125 0.495 2.1875 1 C5.01697427 2.00603529 7.02895466 2.16977402 10 2 C10 3.32 10 4.64 10 6 C12.475 6.99 12.475 6.99 15 8 C15 8.66 15 9.32 15 10 C11.58809167 8.38340534 8.43782465 6.45729895 5.25 4.4375 C4.26515625 3.81746094 3.2803125 3.19742188 2.265625 2.55859375 C1.51796875 2.04425781 0.7703125 1.52992188 0 1 C0 0.67 0 0.34 0 0 Z " fill="#E7A958" transform="translate(304,152)"/>
<path d="M0 0 C-2.5864584 2.5864584 -5.2938548 3.62271883 -8.625 5.125 C-9.81351562 5.66382813 -11.00203125 6.20265625 -12.2265625 6.7578125 C-13.14179688 7.16773438 -14.05703125 7.57765625 -15 8 C-15.33 7.34 -15.66 6.68 -16 6 C-13.35261084 4.5393715 -12.10551666 4 -9 4 C-9 3.34 -9 2.68 -9 2 C-5.5647952 -0.29013653 -4.014669 -0.17842973 0 0 Z " fill="#E6AA56" transform="translate(307,353)"/>
<path d="M0 0 C0.33 0 0.66 0 1 0 C1 2.97 1 5.94 1 9 C1.66 9 2.32 9 3 9 C2.979375 10.051875 2.95875 11.10375 2.9375 12.1875 C2.98896802 15.32704904 3.26517187 17.96883396 4 21 C0.2125695 16.22454416 -0.11799367 12.86130964 -0.0625 6.8125 C-0.05347656 5.54019531 -0.04445312 4.26789063 -0.03515625 2.95703125 C-0.02355469 1.98121094 -0.01195312 1.00539063 0 0 Z " fill="#E2A959" transform="translate(167,279)"/>
<path d="M0 0 C0.33 1.32 0.66 2.64 1 4 C1.66 4 2.32 4 3 4 C2.3125 6.4375 2.3125 6.4375 1 9 C-1.625 9.8125 -1.625 9.8125 -4 10 C-2.8905928 6.51329166 -1.73662334 3.22515763 0 0 Z " fill="#E9A648" transform="translate(196,216)"/>
<path d="M0 0 C1.37095624 3.69037278 0.60010967 5.70883835 -0.9375 9.25 C-1.31777344 10.14203125 -1.69804687 11.0340625 -2.08984375 11.953125 C-2.39019531 12.62859375 -2.69054687 13.3040625 -3 14 C-3.99 14 -4.98 14 -6 14 C-4.50829734 9.0276578 -2.39542583 4.58154261 0 0 Z " fill="#E4A854" transform="translate(174,264)"/>
<path d="M0 0 C-2.46278801 2.46278801 -4.70676982 2.99771255 -8 4 C-8 4.66 -8 5.32 -8 6 C-9.32 6.33 -10.64 6.66 -12 7 C-12 6.01 -12 5.02 -12 4 C-11.34 4 -10.68 4 -10 4 C-9.67 3.01 -9.34 2.02 -9 1 C-6.04335481 -0.4783226 -3.25770263 -0.06032783 0 0 Z " fill="#F19F32" transform="translate(193,152)"/>
<path d="M0 0 C0.66 0.33 1.32 0.66 2 1 C2 1.66 2 2.32 2 3 C2.928125 2.690625 2.928125 2.690625 3.875 2.375 C4.926875 2.189375 4.926875 2.189375 6 2 C6.66 2.66 7.32 3.32 8 4 C5.69 5.32 3.38 6.64 1 8 C0.814375 7.071875 0.814375 7.071875 0.625 6.125 C0.12802644 3.80879168 0.12802644 3.80879168 -2 2 C-1.34 1.34 -0.68 0.68 0 0 Z " fill="#E9A74E" transform="translate(317,338)"/>
<path d="M0 0 C8.44646925 6.15034169 8.44646925 6.15034169 12 10 C11.01 10 10.02 10 9 10 C9 9.34 9 8.68 9 8 C8.2575 7.731875 7.515 7.46375 6.75 7.1875 C4.09090121 6.0392528 2.12218515 4.96498625 0 3 C0 2.01 0 1.02 0 0 Z " fill="#FEF2D3" transform="translate(314,159)"/>
<path d="M0 0 C0.99 0.33 1.98 0.66 3 1 C4.1875 4.0625 4.1875 4.0625 5 7 C4.01 7.33 3.02 7.66 2 8 C0.4375 5.6875 0.4375 5.6875 -1 3 C-0.67 2.01 -0.34 1.02 0 0 Z " fill="#F09F34" transform="translate(157,315)"/>
<path d="M0 0 C1.60080151 4.00200378 0.29279692 7.04556236 -1 11 C-1.66 11 -2.32 11 -3 11 C-3 11.66 -3 12.32 -3 13 C-3.66 13 -4.32 13 -5 13 C-3.58192622 8.52761347 -1.88695626 4.28853694 0 0 Z " fill="#E5A854" transform="translate(188,233)"/>
<path d="M0 0 C-0.57344937 2.86724686 -0.8614515 3.8614515 -3 6 C-3.99 6 -4.98 6 -6 6 C-5.67 4.35 -5.34 2.7 -5 1 C-2 0 -2 0 0 0 Z " fill="#EFA032" transform="translate(172,166)"/>
<path d="M0 0 C0.66 0.66 1.32 1.32 2 2 C1.01 2.66 0.02 3.32 -1 4 C-1 1 -1 1 0 0 Z M-2 4 C-1.34 4.99 -0.68 5.98 0 7 C0.98095748 8.01868662 1.97702078 9.02351983 3 10 C2.67 10.66 2.34 11.32 2 12 C-2.875 7.25 -2.875 7.25 -4 5 C-3.34 4.67 -2.68 4.34 -2 4 Z " fill="#E9AA53" transform="translate(167,324)"/>
<path d="M0 0 C0 0.66 0 1.32 0 2 C-0.969375 2.268125 -1.93875 2.53625 -2.9375 2.8125 C-3.948125 3.204375 -4.95875 3.59625 -6 4 C-6.33 4.99 -6.66 5.98 -7 7 C-7.66 7 -8.32 7 -9 7 C-9 7.66 -9 8.32 -9 9 C-9.66 9 -10.32 9 -11 9 C-9.55936614 4.67809842 -4.74032109 0 0 0 Z " fill="#E3AC62" transform="translate(218,185)"/>
<path d="M0 0 C-1.38009621 3.33523252 -2.84950652 5.18607951 -6 7 C-6.99 6.67 -7.98 6.34 -9 6 C-7.8803014 4.99406757 -6.7540588 3.9954151 -5.625 3 C-4.68527344 2.1646875 -4.68527344 2.1646875 -3.7265625 1.3125 C-2 0 -2 0 0 0 Z " fill="#F7C67D" transform="translate(236,231)"/>
<path d="M0 0 C1.98 0 3.96 0 6 0 C5.67 1.32 5.34 2.64 5 4 C3.35 3.67 1.7 3.34 0 3 C0 2.01 0 1.02 0 0 Z " fill="#EEA135" transform="translate(301,147)"/>
<path d="M0 0 C-3.31371 2.20914 -4.3446021 2.22481553 -8.1875 2.125 C-9.08855469 2.10695312 -9.98960937 2.08890625 -10.91796875 2.0703125 C-11.60503906 2.04710937 -12.29210937 2.02390625 -13 2 C-13 1.67 -13 1.34 -13 1 C-4.57142857 -1.42857143 -4.57142857 -1.42857143 0 0 Z " fill="#FCEED1" transform="translate(234,141)"/>
<path d="M0 0 C1.32 0.66 2.64 1.32 4 2 C3.67 3.32 3.34 4.64 3 6 C2.01 6 1.02 6 0 6 C-0.38218767 4.34385343 -0.71395102 2.67542976 -1 1 C-0.67 0.67 -0.34 0.34 0 0 Z " fill="#F0A036" transform="translate(174,334)"/>
<path d="M0 0 C0.33 0 0.66 0 1 0 C0.93993922 1.45947705 0.8511311 2.91779272 0.75 4.375 C0.70359375 5.18710937 0.6571875 5.99921875 0.609375 6.8359375 C0 9 0 9 -2.046875 10.2890625 C-3.01367188 10.64097656 -3.01367188 10.64097656 -4 11 C-2.7874262 7.27566618 -1.49140021 3.62197194 0 0 Z " fill="#FEF4D9" transform="translate(200,266)"/>
<path d="M0 0 C0.33 0.66 0.66 1.32 1 2 C0.22265625 4.1640625 0.22265625 4.1640625 -0.9375 6.625 C-1.31777344 7.44226563 -1.69804687 8.25953125 -2.08984375 9.1015625 C-2.39019531 9.72804688 -2.69054687 10.35453125 -3 11 C-3.33 11 -3.66 11 -4 11 C-3.54177532 7.53058454 -3.10868317 4.32604951 -2 1 C-1.34 0.67 -0.68 0.34 0 0 Z " fill="#E4A851" transform="translate(207,249)"/>
<path d="M0 0 C-1.24176695 0.70226141 -2.49385599 1.38629109 -3.75 2.0625 C-4.79414063 2.63677734 -4.79414063 2.63677734 -5.859375 3.22265625 C-8.36140628 4.1312406 -9.5332355 3.88336837 -12 3 C-10.75823305 2.29773859 -9.50614401 1.61370891 -8.25 0.9375 C-7.20585937 0.36322266 -7.20585937 0.36322266 -6.140625 -0.22265625 C-3.63859372 -1.1312406 -2.4667645 -0.88336837 0 0 Z " fill="#F3C379" transform="translate(248,227)"/>
<path d="M0 0 C0.99 0.33 1.98 0.66 3 1 C3 2.98 3 4.96 3 7 C1.68 6.01 0.36 5.02 -1 4 C-0.67 2.68 -0.34 1.36 0 0 Z " fill="#F0A132" transform="translate(144,293)"/>
<path d="M0 0 C0.99 0 1.98 0 3 0 C3.1875 2.375 3.1875 2.375 3 5 C2.01 5.66 1.02 6.32 0 7 C-0.38133299 5.0085944 -0.71325582 3.00720923 -1 1 C-0.67 0.67 -0.34 0.34 0 0 Z " fill="#F29F34" transform="translate(146,197)"/>
<path d="M0 0 C4.75 0.875 4.75 0.875 7 2 C7 2.66 7 3.32 7 4 C5.02 4 3.04 4 1 4 C0.67 2.68 0.34 1.36 0 0 Z " fill="#F29F34" transform="translate(318,158)"/>
<path d="M0 0 C0.99 0.33 1.98 0.66 3 1 C-0.465 3.97 -0.465 3.97 -4 7 C-4 5.35 -4 3.7 -4 2 C-3.01 2 -2.02 2 -1 2 C-0.67 1.34 -0.34 0.68 0 0 Z " fill="#E6AD60" transform="translate(331,333)"/>
<path d="M0 0 C2.64752004 2.57784846 4.94432065 4.91648098 7 8 C5.35 7.67 3.7 7.34 2 7 C1.34 4.69 0.68 2.38 0 0 Z " fill="#E3A858" transform="translate(160,316)"/>
<path d="M0 0 C0.66 0.33 1.32 0.66 2 1 C1.34 2.32 0.68 3.64 0 5 C-0.99 5 -1.98 5 -3 5 C-3 5.66 -3 6.32 -3 7 C-3.66 7 -4.32 7 -5 7 C-3.70700306 4.11562221 -2.34058637 2.12780579 0 0 Z " fill="#EAAA5E" transform="translate(208,285)"/>
<path d="M0 0 C0.99 0.33 1.98 0.66 3 1 C2.67 3.31 2.34 5.62 2 8 C1.67 8 1.34 8 1 8 C1 6.35 1 4.7 1 3 C0.01 2.67 -0.98 2.34 -2 2 C-1.34 1.34 -0.68 0.68 0 0 Z " fill="#EFA142" transform="translate(148,194)"/>
<path d="M0 0 C1.27445454 0.42683632 2.54445882 0.86697202 3.8125 1.3125 C4.52019531 1.55613281 5.22789062 1.79976562 5.95703125 2.05078125 C8.14472373 3.06724258 9.40896718 4.20820594 11 6 C7.08406554 5.21681311 3.63593365 3.60820142 0 2 C0 1.34 0 0.68 0 0 Z " fill="#FEF0D6" transform="translate(296,149)"/>
<path d="M0 0 C1.32 0 2.64 0 4 0 C4 0.66 4 1.32 4 2 C4.99 2.33 5.98 2.66 7 3 C6.67 3.66 6.34 4.32 6 5 C3.5625 4.1875 3.5625 4.1875 1 3 C0.67 2.01 0.34 1.02 0 0 Z " fill="#F19F36" transform="translate(179,341)"/>
<path d="M0 0 C0.33 0 0.66 0 1 0 C0.25 7.75 0.25 7.75 -2 10 C-2.33 8.02 -2.66 6.04 -3 4 C-2.01 3.67 -1.02 3.34 0 3 C0 2.01 0 1.02 0 0 Z " fill="#FEF9E5" transform="translate(353,285)"/>
<path d="M0 0 C6.875 3.75 6.875 3.75 8 6 C6.02 6 4.04 6 2 6 C2 4.68 2 3.36 2 2 C1.34 2 0.68 2 0 2 C0 1.34 0 0.68 0 0 Z " fill="#E2AA51" transform="translate(314,151)"/>
<path d="M0 0 C1.32 0 2.64 0 4 0 C4 0.66 4 1.32 4 2 C5.65 2.33 7.3 2.66 9 3 C9 3.66 9 4.32 9 5 C5.22454612 3.90931332 2.52956528 3.0916909 0 0 Z " fill="#FEF2D5" transform="translate(193,345)"/>
<path d="M0 0 C0.33 0.99 0.66 1.98 1 3 C-0.98 4.32 -2.96 5.64 -5 7 C-5.66 6.67 -6.32 6.34 -7 6 C-4.69 4.02 -2.38 2.04 0 0 Z " fill="#E8A451" transform="translate(326,331)"/>
<path d="M0 0 C1.65 0 3.3 0 5 0 C5.33 1.65 5.66 3.3 6 5 C1.125 2.25 1.125 2.25 0 0 Z " fill="#FCECCB" transform="translate(175,332)"/>
<path d="M0 0 C0.33 0.66 0.66 1.32 1 2 C0.22265625 3.9453125 0.22265625 3.9453125 -0.9375 6.125 C-1.31777344 6.84945313 -1.69804687 7.57390625 -2.08984375 8.3203125 C-2.39019531 8.87460937 -2.69054687 9.42890625 -3 10 C-3.33 10 -3.66 10 -4 10 C-4 8.35 -4 6.7 -4 5 C-3.34 4.67 -2.68 4.34 -2 4 C-0.86649466 1.98330173 -0.86649466 1.98330173 0 0 Z " fill="#FEF4D9" transform="translate(350,295)"/>
<path d="M0 0 C0.33 0 0.66 0 1 0 C1 2.97 1 5.94 1 9 C0.01 9.33 -0.98 9.66 -2 10 C-1.34 6.7 -0.68 3.4 0 0 Z " fill="#E6AA58" transform="translate(358,274)"/>
<path d="M0 0 C0.33 0 0.66 0 1 0 C1.36923077 5.41538462 1.36923077 5.41538462 -0.5 8.375 C-0.995 8.91125 -1.49 9.4475 -2 10 C-1.125 2.25 -1.125 2.25 0 0 Z " fill="#EAA850" transform="translate(206,194)"/>
<path d="" fill="#FFFFFF" transform="translate(0,0)"/>
<path d="" fill="#FFFFFF" transform="translate(0,0)"/>
<path d="" fill="#FFFFFF" transform="translate(0,0)"/>
<path d="" fill="#FFFFFF" transform="translate(0,0)"/>
<path d="" fill="#FFFFFF" transform="translate(0,0)"/>
<path d="" fill="#FFFFFF" transform="translate(0,0)"/>
<path d="" fill="#FFFFFF" transform="translate(0,0)"/>
<path d="" fill="#FFFFFF" transform="translate(0,0)"/>
<path d="" fill="#FFFFFF" transform="translate(0,0)"/>
<path d="" fill="#FFFFFF" transform="translate(0,0)"/>
<path d="" fill="#FFFFFF" transform="translate(0,0)"/>
<path d="" fill="#FFFFFF" transform="translate(0,0)"/>
<path d="" fill="#FFFFFF" transform="translate(0,0)"/>
<path d="" fill="#FFFFFF" transform="translate(0,0)"/>
<path d="" fill="#FFFFFF" transform="translate(0,0)"/>
<path d="" fill="#FFFFFF" transform="translate(0,0)"/>
<path d="" fill="#FFFFFF" transform="translate(0,0)"/>
<path d="" fill="#FFFFFF" transform="translate(0,0)"/>
<path d="" fill="#FFFFFF" transform="translate(0,0)"/>
<path d="" fill="#FFFFFF" transform="translate(0,0)"/>
<path d="" fill="#FFFFFF" transform="translate(0,0)"/>
<path d="" fill="#FFFFFF" transform="translate(0,0)"/>
<path d="" fill="#FFFFFF" transform="translate(0,0)"/>
<path d="" fill="#FFFFFF" transform="translate(0,0)"/>
<path d="" fill="#FFFFFF" transform="translate(0,0)"/>
<path d="" fill="#FFFFFF" transform="translate(0,0)"/>
<path d="" fill="#FFFFFF" transform="translate(0,0)"/>
<path d="" fill="#FFFFFF" transform="translate(0,0)"/>
<path d="" fill="#FFFFFF" transform="translate(0,0)"/>
<path d="" fill="#FFFFFF" transform="translate(0,0)"/>
<path d="" fill="#FFFFFF" transform="translate(0,0)"/>
<path d="" fill="#FFFFFF" transform="translate(0,0)"/>
<path d="" fill="#FFFFFF" transform="translate(0,0)"/>
<path d="" fill="#FFFFFF" transform="translate(0,0)"/>
<path d="" fill="#FFFFFF" transform="translate(0,0)"/>
<path d="" fill="#FFFFFF" transform="translate(0,0)"/>
<path d="" fill="#FFFFFF" transform="translate(0,0)"/>
<path d="" fill="#FFFFFF" transform="translate(0,0)"/>
<path d="" fill="#FFFFFF" transform="translate(0,0)"/>
<path d="" fill="#FFFFFF" transform="translate(0,0)"/>
<path d="" fill="#FFFFFF" transform="translate(0,0)"/>
<path d="" fill="#FFFFFF" transform="translate(0,0)"/>
<path d="" fill="#FFFFFF" transform="translate(0,0)"/>
<path d="" fill="#FFFFFF" transform="translate(0,0)"/>
<path d="" fill="#FFFFFF" transform="translate(0,0)"/>
<path d="" fill="#FFFFFF" transform="translate(0,0)"/>
<path d="" fill="#FFFFFF" transform="translate(0,0)"/>
<path d="" fill="#FFFFFF" transform="translate(0,0)"/>
<path d="" fill="#FFFFFF" transform="translate(0,0)"/>
<path d="" fill="#FFFFFF" transform="translate(0,0)"/>
<path d="" fill="#FFFFFF" transform="translate(0,0)"/>
<path d="" fill="#FFFFFF" transform="translate(0,0)"/>
<path d="" fill="#FFFFFF" transform="translate(0,0)"/>
<path d="" fill="#FFFFFF" transform="translate(0,0)"/>
<path d="" fill="#FFFFFF" transform="translate(0,0)"/>
<path d="" fill="#FFFFFF" transform="translate(0,0)"/>
<path d="" fill="#FFFFFF" transform="translate(0,0)"/>
<path d="" fill="#FFFFFF" transform="translate(0,0)"/>
<path d="" fill="#FFFFFF" transform="translate(0,0)"/>
<path d="" fill="#FFFFFF" transform="translate(0,0)"/>
<path d="" fill="#FFFFFF" transform="translate(0,0)"/>
<path d="" fill="#FFFFFF" transform="translate(0,0)"/>
<path d="" fill="#FFFFFF" transform="translate(0,0)"/>
<path d="" fill="#FFFFFF" transform="translate(0,0)"/>
<path d="" fill="#FFFFFF" transform="translate(0,0)"/>
<path d="" fill="#FFFFFF" transform="translate(0,0)"/>
<path d="" fill="#FFFFFF" transform="translate(0,0)"/>
<path d="" fill="#FFFFFF" transform="translate(0,0)"/>
<path d="" fill="#FFFFFF" transform="translate(0,0)"/>
</svg>
